<svg id="key" xmlns="http://www.w3.org/2000/svg" width="19" height="18.995" viewBox="0 0 19 18.995">
  <g id="Group_3" data-name="Group 3" transform="translate(12.495 4)">
    <g id="Group_2" data-name="Group 2">
      <ellipse id="Ellipse_1" data-name="Ellipse 1" cx="1.5" cy="1" rx="1.5" ry="1" fill="#ececed"/>
    </g>
  </g>
  <g id="Group_5" data-name="Group 5" transform="translate(0 0)">
    <g id="Group_4" data-name="Group 4">
      <path id="Path_2" data-name="Path 2" d="M18.8,6.222A10.828,10.828,0,0,0,16.46,2.551,10.578,10.578,0,0,0,12.816.263,2.984,2.984,0,0,0,9.651.934l-2.914,2.9a2.97,2.97,0,0,0-.62,3.292c.153.344.319.681.5,1.006l-6.4,6.4A.742.742,0,0,0,0,15.054V18.32a.742.742,0,0,0,.742.742H4.008a.742.742,0,0,0,.742-.742V16.984H6.086a.742.742,0,0,0,.742-.742V14.906H8.164a.742.742,0,0,0,0-1.484H6.086a.742.742,0,0,0-.742.742V15.5H4.008a.742.742,0,0,0-.742.742v1.336H1.484V15.362L8.066,8.78a.742.742,0,0,0,.11-.91,12.011,12.011,0,0,1-.7-1.347,1.477,1.477,0,0,1,.31-1.637l2.914-2.9a1.5,1.5,0,0,1,1.588-.337A9.087,9.087,0,0,1,15.413,3.6a9.338,9.338,0,0,1,2,3.162,1.474,1.474,0,0,1-.333,1.584l-2.95,2.936A1.5,1.5,0,0,1,12.5,11.6a9.634,9.634,0,0,1-1.336-.682.742.742,0,0,0-.776,1.265,11.124,11.124,0,0,0,1.542.787,2.975,2.975,0,0,0,3.251-.637L18.128,9.4A2.957,2.957,0,0,0,18.8,6.222Z" transform="translate(0 -0.067)" fill="#ececed"/>
    </g>
  </g>
</svg>
